<?xml version="1.0" standalone="no"?>
<!DOCTYPE svg PUBLIC "-//W3C//DTD SVG 20010904//EN"
 "http://www.w3.org/TR/2001/REC-SVG-20010904/DTD/svg10.dtd">
<svg version="1.0" xmlns="http://www.w3.org/2000/svg"
 width="1062.000000pt" height="1062.000000pt" viewBox="0 0 1062.000000 1062.000000"
 preserveAspectRatio="xMidYMid meet">
<metadata>
Created by potrace 1.14, written by Peter Selinger 2001-2017
</metadata>
<g transform="translate(0.000000,1062.000000) scale(0.100000,-0.100000)"
fill="#000000" stroke="none">
<path d="M5260 10588 c-38 -23 -127 -75 -200 -116 -25 -14 -88 -50 -140 -81
-52 -31 -111 -65 -131 -76 -33 -19 -305 -176 -339 -195 -118 -70 -153 -90
-155 -90 -2 0 -38 -20 -79 -45 -42 -25 -81 -45 -86 -45 -6 0 -10 -4 -10 -10 0
-5 -4 -10 -9 -10 -5 0 -55 -27 -111 -60 -56 -33 -104 -60 -106 -60 -2 0 -33
-17 -67 -39 -34 -21 -105 -62 -157 -92 -118 -67 -101 -58 -277 -159 -81 -47
-167 -97 -192 -111 -47 -27 -422 -244 -884 -511 -142 -82 -273 -157 -290 -167
-18 -10 -189 -109 -382 -221 -192 -111 -366 -211 -385 -222 -60 -34 -504 -290
-527 -304 l-21 -13 0 -2654 0 -2653 61 -35 c109 -61 132 -74 157 -90 14 -9
104 -61 200 -117 96 -55 290 -166 430 -248 140 -81 280 -161 310 -177 30 -17
79 -45 108 -64 29 -18 54 -33 57 -33 2 0 68 -38 147 -84 79 -46 251 -145 383
-221 132 -76 273 -158 312 -182 40 -23 75 -43 78 -43 3 0 22 -11 43 -24 29
-18 298 -175 530 -307 17 -11 47 -27 65 -38 17 -10 61 -35 97 -56 36 -21 79
-45 95 -55 482 -278 1284 -741 1325 -765 30 -18 77 -44 103 -59 26 -14 58 -33
70 -41 21 -13 32 -8 187 81 91 53 210 122 265 153 55 32 145 84 200 116 55 32
120 69 145 83 25 14 57 33 72 43 14 11 28 19 31 19 3 0 69 37 148 83 79 46
236 137 349 202 113 65 217 127 233 137 15 11 27 16 27 12 0 -3 6 -2 13 4 14
12 219 132 297 175 30 16 62 36 71 43 8 8 18 14 22 14 3 0 89 48 189 107 180
104 211 122 286 164 20 12 42 25 47 29 6 4 35 21 65 37 67 37 977 563 1110
641 52 31 97 57 100 57 3 0 37 19 75 42 39 23 203 119 365 213 162 93 301 174
309 179 11 7 13 425 13 2660 0 1459 -1 2653 -3 2655 -2 2 -83 48 -179 103
-362 208 -710 409 -848 489 -79 46 -145 84 -148 84 -3 0 -17 8 -32 19 -15 10
-106 63 -202 119 -96 55 -407 234 -690 398 -283 163 -540 311 -570 327 -30 16
-62 36 -71 43 -8 8 -18 14 -21 14 -4 0 -270 150 -318 179 -8 6 -145 85 -305
177 -289 166 -371 214 -538 312 -48 29 -89 52 -92 52 -3 0 -33 17 -67 38 -35
21 -83 50 -108 64 -25 14 -124 71 -220 127 -96 55 -179 101 -185 101 -5 0 -26
-10 -45 -22z"/>
</g>
</svg>
